<svg width="360" height="514" viewBox="0 0 360 514" fill="none" xmlns="http://www.w3.org/2000/svg">
<path fill-rule="evenodd" clip-rule="evenodd" d="M164.579 193.44L159.114 206.962L162.125 249.821L164.365 250.17C188.028 253.841 204.107 255.696 212.603 255.733L212.866 255.734C221.422 255.734 231.674 253.821 243.622 249.996L244.166 249.821L245.546 217.729H242.293L236.409 203.923L236.414 203.918C236.479 204.029 236.547 204.136 236.617 204.24C239.07 207.871 240.492 204.939 246.255 206.223C253.155 207.761 256.219 214.741 262.294 219.957C265.114 222.379 271.034 223.52 273.867 225.186L276.843 226.936C286.168 232.44 296.885 239.127 302.512 247.837C309.109 258.049 313.656 267.739 317.855 279.099C326.906 303.584 333.188 328.569 337.676 354.264C342.226 380.306 344.96 406.672 347.049 433.017C348.016 445.225 348.836 457.444 349.517 469.671L349.685 472.728C350.042 479.381 349.731 485.891 343.687 489.988C339.357 492.923 333.61 493.37 328.529 493.671L328.253 493.688C290.69 495.892 253.126 498.081 215.562 500.274L159.218 503.571C149.843 504.121 140.467 504.667 131.092 505.209L108.207 506.532C97.4217 507.146 86.6229 507.678 75.8227 507.615C62.2346 507.536 48.7042 506.531 35.2414 504.719L34.0537 504.557C25.5837 503.386 13.3027 500.425 11.7813 490.259C11.5629 488.799 12.8467 487.887 13.9245 488.097C13.5698 486.442 13.3496 484.785 13.1392 483.345C12.2365 477.194 11.6697 471.003 11.3896 464.793C10.8277 452.366 11.3011 439.881 12.5425 427.508C14.5961 407.038 17.4748 386.604 20.4493 366.241L21.1116 361.717C24.2754 340.143 28.0423 318.606 33.9367 297.591C39.3817 278.178 47.8761 257.983 59.5643 245.708C71.2525 233.432 87.9174 222.767 105.041 216.235C106.524 215.669 135.987 209.213 137.972 210.153L138.328 209.873C144.202 205.232 152.582 197.079 161.21 199.646L161.229 199.614C161.433 199.24 162.23 196.735 163.331 193.44H164.579Z" fill="#8FA7DF"/>
<path fill-rule="evenodd" clip-rule="evenodd" d="M170.81 175.443C177.946 166.389 185.468 163.51 196.583 164.185C204.121 163.915 211.639 165.874 218.021 170.199C223.869 173.258 229.055 177.467 232.757 182.887C235.923 187.52 233.517 198.969 236.409 203.923C236.381 204.462 236.366 204.953 236.366 205.397C236.366 209.684 239.347 214.467 245.309 219.748L245.546 219.957V251.107C235.523 254.192 223.114 255.734 208.319 255.734C193.744 255.734 178.585 253.285 162.841 248.387L162.125 248.162L159.114 214.307L162.125 204.939L162.124 197.092L163.288 193.582C165.348 187.411 168.502 178.372 170.81 175.443Z" fill="#694D3D"/>
<path fill-rule="evenodd" clip-rule="evenodd" d="M162.125 248.162C179.767 253.304 194.61 255.875 206.654 255.875C218.698 255.875 231.202 253.304 244.167 248.162L241.012 502.049L190.236 502.67L162.125 248.162Z" fill="#9FD8E5"/>
<path fill-rule="evenodd" clip-rule="evenodd" d="M75.0104 359.018C74.8147 358.651 75.2685 358.321 75.5696 358.586C82.4096 364.593 85.9907 374.241 86.7415 383.159C87.5371 392.615 86.4092 402.406 85.9781 411.859C85.4984 422.388 85.0674 432.921 84.4818 443.445C83.8872 454.122 83.2467 464.796 82.6977 475.476L81.4627 499.5C81.3313 502.06 81.6159 505.209 80.6341 507.598C79.1127 511.302 74.5935 510.729 73.6437 507.633L73.614 507.531L73.5274 507.598C72.6894 504.808 73.3166 501.494 73.4586 498.61L74.7526 472.362C75.6668 453.809 76.4822 435.256 77.4642 416.707L77.7981 410.524C78.2572 402.201 78.6092 393.898 78.8919 385.577L78.9836 382.803C79.252 374.448 79.039 366.561 75.0104 359.018ZM240.822 205.001C244.633 204.639 247.511 205.904 250.97 207.236C252.477 207.816 253.904 208.486 255.35 209.18C257.16 210.049 258.324 211.584 259.439 213.208L260.035 214.083C264.676 220.889 267.799 228.741 271.322 236.151C275.443 244.819 279.605 253.468 283.638 262.177L285.628 266.468C286.623 268.614 287.615 270.76 288.593 272.914L290.281 276.662C291.978 280.463 293.498 284.485 291.081 288.406C288.832 292.053 284.847 294.875 281.691 297.694C279.058 300.046 276.425 302.398 273.791 304.75C279.236 310.206 282.891 317.077 285.039 324.446C288.092 323.173 291.818 322.929 294.974 322.378C299.392 321.607 299.933 328.301 295.764 328.22C292.684 328.159 289.071 328.474 285.912 327.825C286.461 330.246 286.86 332.704 287.113 335.169C288.441 348.086 285.54 361.079 282.515 373.578L282.266 374.604C278.98 388.131 275.865 401.695 273.078 415.335C270.285 429.004 267.773 442.731 265.543 456.503C263.273 470.521 261.666 484.617 259.94 498.709C259.679 500.842 258.338 502.67 255.983 502.67C254.021 502.67 251.779 500.838 252.025 498.709C253.806 483.363 256.333 468.097 258.843 452.855C263.166 426.608 268.607 400.588 274.866 374.74L275.96 370.238C278.776 358.563 281.331 346.534 279.918 334.492C278.768 324.686 274.671 314.231 266.575 308.14L266.328 307.957C264.437 306.569 263.709 303.914 265.572 302.086C266.757 300.923 267.944 299.761 269.132 298.6L276.259 291.635L277.696 290.229C278.894 289.058 280.098 287.894 281.338 286.767C282.088 286.084 284.123 284.783 284.271 283.661C284.368 282.929 283.502 281.643 283.15 280.968L281.542 277.718C280.628 275.865 279.743 273.999 278.851 272.135C277.003 268.274 275.127 264.425 273.319 260.545L262.456 237.248C259.391 230.676 256.661 223.737 252.654 217.661L251.864 216.476C251.205 215.479 250.622 214.519 250.205 213.299C249.805 212.126 249.302 210.837 248.561 209.836C246.826 207.486 243.509 206.153 240.733 205.66C240.332 205.589 240.478 205.034 240.822 205.001ZM157.269 198.882C157.511 198.882 157.547 199.227 157.325 199.294C153.976 200.302 150.777 201.928 148.166 204.275C146.918 205.398 145.66 206.672 144.889 208.184C144.594 208.763 144.431 209.374 144.311 210.008L144.273 210.22C144.074 211.364 143.789 212.002 143.208 212.918L143.108 213.074C139.791 218.201 137.466 223.896 135.34 229.598L130.711 242.031L126.084 254.466C124.594 258.472 123.102 262.479 121.611 266.486C120.788 268.698 119.941 270.901 119.094 273.104C118.728 274.058 118.334 275.005 117.999 275.971C117.953 276.103 117.806 276.899 117.697 277.092L117.734 277.157C118.667 278.728 121.156 280.041 122.566 281.182L127.423 285.112C130.887 287.915 134.439 290.639 137.798 293.567C139.908 295.405 138.595 298.697 136.242 299.465C132.299 300.75 128.435 302.289 124.551 303.744C122.982 304.331 121.348 304.843 119.797 305.49L118.853 305.899C118.485 306.065 118.662 306.063 118.677 306.744C118.691 307.458 118.894 308.203 119.01 308.905C120.318 316.822 121.705 324.726 123.169 332.616C128.347 360.517 134.533 388.214 141.588 415.698C145.152 429.578 148.974 443.389 152.615 457.249C156.248 471.071 161.028 484.695 165.592 498.232C166.88 502.049 160.832 503.693 159.576 499.892C154.315 483.97 149.503 467.91 144.534 451.898C135.705 423.448 128.747 394.379 122.594 365.241C119.544 350.799 116.755 336.302 114.228 321.76C113.75 319.006 113.281 316.252 112.821 313.495L112.152 309.441C111.693 306.551 111.431 303.541 113.676 301.254C115.867 299.021 119.629 298.23 122.513 297.183L122.723 297.106C124.558 296.421 126.406 295.761 128.247 295.08C125.535 292.943 122.856 290.759 120.151 288.623C117.968 286.9 115.751 285.212 113.6 283.45C111.826 281.996 110.38 280.129 110.195 277.765C110.006 275.349 111.041 273.107 111.875 270.891L111.955 270.677C112.775 268.465 113.596 266.253 114.439 264.049L119.651 250.406C122.964 241.736 126.137 232.996 129.621 224.394C130.999 220.99 132.501 217.639 134.276 214.421C135.132 212.869 136.05 211.351 137.048 209.886C138.165 208.244 139.18 207.443 140.911 206.537C143.68 205.088 145.854 202.659 148.634 201.165C151.363 199.699 154.171 198.916 157.269 198.882ZM166.258 183.415C166.364 183.233 166.645 183.314 166.648 183.521C166.721 187.83 165.698 192.233 165.069 196.493C164.436 200.769 164.234 205.282 163.319 209.512C163.3 209.709 163.262 209.903 163.208 210.094L163.165 210.239C162.779 211.424 161.775 212.428 160.544 212.742C160.931 214.89 161.296 217.041 161.603 219.204C162.13 222.921 162.611 226.644 163.084 230.369L163.65 234.838C164.185 239.05 164.705 243.264 165.219 247.479C166.526 248.026 167.861 248.477 169.227 248.869C172.374 249.77 175.597 250.136 178.845 250.455C185.458 251.104 192.122 251.405 198.759 251.774L200.18 251.854C207.642 252.282 215.144 252.358 222.586 251.592C226.277 251.212 229.938 250.574 233.537 249.671C235.366 249.211 237.143 248.526 238.968 248.077C239.573 247.928 240.114 247.585 240.721 247.218C240.99 246.877 241.368 246.619 241.86 246.52L241.994 246.497L242.126 246.477L242.171 246.457L242.168 246.471C242.541 246.421 242.896 246.421 243.23 246.467C243.364 243.181 243.508 239.895 243.689 236.61C244.174 227.787 245.515 218.583 243.725 209.837C243.665 209.543 244.065 209.439 244.169 209.714C247.681 218.973 247.286 229.098 247.463 238.843C247.636 248.372 247.531 257.909 247.484 267.441C248.166 267.732 248.775 268.125 249.257 268.678C250.219 269.782 250.496 271.702 249.257 272.768C248.707 273.24 248.099 273.568 247.454 273.796C247.42 282.077 247.361 290.358 247.278 298.64C248.852 299.856 248.999 302.744 247.219 303.945C246.923 330.763 246.436 357.581 246.032 384.395L245.186 440.651C245.073 448.147 244.887 455.642 244.82 463.136L244.873 463.157L245.06 463.244C245.375 463.392 245.844 463.632 245.942 463.877C245.967 463.941 245.974 463.985 245.971 464.018C246.487 464.09 246.999 464.335 247.441 464.755C248.534 465.794 248.312 467.36 247.441 468.418L247.209 468.701C246.666 469.36 245.635 469.614 244.794 469.48C244.802 474.158 244.832 478.836 244.817 483.514C244.813 484.942 244.791 486.371 244.766 487.8L244.708 491.226C244.668 493.18 244.495 495.665 242.495 496.543C240.238 497.534 238.214 496.722 237.3 494.428C237.052 493.807 237.106 493.228 237.196 492.613C237.168 491.69 237.023 490.62 237.041 489.764L237.116 486.192C237.127 485.642 237.15 485.091 237.165 484.541L237.1 484.547C229.08 484.937 221.004 484.747 212.971 484.742L209.398 484.747C206.418 484.75 203.43 484.734 200.454 484.62L199.338 484.572C197.109 484.468 194.766 484.434 192.455 484.235C192.75 486.608 193.025 488.983 193.27 491.361C193.502 493.615 191.177 495.531 189.103 495.531C186.64 495.531 185.232 493.593 184.937 491.361C183.545 480.83 182.975 470.201 181.646 459.663C180.455 450.225 179.422 440.765 178.372 431.309L178.021 428.157C174.18 393.745 170.45 359.319 166.883 324.877L165.221 308.777C163.544 292.549 161.856 276.32 160.433 260.068C159.619 250.776 158.869 241.483 158.164 232.182C157.646 225.35 157.321 218.555 157.109 211.735C156.274 210.876 155.856 209.62 156.226 208.324C156.442 207.568 156.693 206.815 156.959 206.064C156.942 205.326 156.925 204.588 156.91 203.849C156.897 203.15 157.606 202.79 158.174 202.906C159.206 200.406 160.342 197.927 161.291 195.451C162.825 191.442 164.09 187.123 166.258 183.415ZM80.5428 226.735C96.5871 216.672 115.685 209.431 134.814 210.21C135.249 210.228 135.371 210.892 134.919 210.992C124.716 213.272 114.401 216.049 104.742 220.091C95.0541 224.145 85.8426 229.603 77.6385 236.163C62.5014 248.266 50.7358 264.008 42.9886 281.753C38.4508 292.148 35.27 303.122 32.4925 314.1C29.5533 325.719 27.131 337.462 25.1169 349.277C21.1388 372.613 18.8227 396.207 17.5904 419.841C16.3365 443.883 16.8533 467.942 15.9591 491.987C15.8045 496.153 9.85475 496.071 9.55235 491.987C7.52621 464.649 8.64872 436.875 10.5225 409.556C12.2074 384.998 15.1497 360.491 19.8876 336.328L20.3003 334.233C24.7296 311.878 30.072 288.981 40.7798 268.735C49.9215 251.45 64.0348 237.09 80.5428 226.735ZM303.342 333.58C303.426 333.34 303.742 333.343 303.826 333.58C305.655 338.704 305.721 344.486 306.207 349.887L306.245 350.302C306.712 355.229 307.063 360.162 307.389 365.098L307.51 366.95C308.821 387.09 310.458 407.207 312.926 427.241C315.385 447.199 318.71 467.018 322.305 486.798C322.706 489.001 321.731 491.244 319.423 491.878C317.389 492.437 314.778 491.184 314.348 488.994C312.116 477.641 310.311 466.272 308.7 454.821C305.866 434.655 303.75 414.397 302.39 394.079C301.708 383.874 301.287 373.673 301.12 363.446C301.043 358.701 301.166 353.945 301.419 349.205L301.479 348.111C301.758 343.266 301.729 338.2 303.342 333.58ZM129.973 461.858C130.188 461.742 130.453 461.981 130.317 462.203C127.211 467.256 123.008 471.613 118.946 475.907C114.699 480.396 110.558 485.02 106.225 489.421C103.095 492.6 98.0595 487.472 101.363 484.555C106.008 480.454 110.863 476.558 115.591 472.549L117.658 470.795C121.535 467.517 125.526 464.269 129.973 461.858ZM277.53 459.328C277.298 458.885 277.828 458.527 278.188 458.82C280.694 460.859 282.94 463.292 285.36 465.444C287.756 467.576 290.242 469.565 292.796 471.504C295.36 473.451 297.98 475.321 300.671 477.09C302.903 478.557 305.203 479.732 307.541 480.951C308.623 481.09 309.626 481.622 310.428 482.63C311.696 484.224 311.831 487.23 310.072 488.614L309.756 488.862C307.703 490.477 305.265 490.674 303.244 488.862C300.987 486.84 298.854 484.614 296.686 482.476L296.035 481.838C293.706 479.572 291.434 477.233 289.291 474.789L287.352 472.581C283.754 468.475 280.009 464.049 277.53 459.328ZM265.987 222.598C265.57 222.321 265.827 221.577 266.342 221.755L267.286 222.081C271.229 223.453 275.287 224.974 278.867 227.085C282.715 229.354 286.267 232.057 289.661 234.956C296.686 240.958 302.663 248.338 307.742 256.031C317.933 271.467 324.236 289.146 329.324 306.834C334.75 325.694 338.928 344.961 342.339 364.281C345.804 383.916 348.478 403.728 350.235 423.591C351.101 433.375 351.682 443.165 351.974 452.983C352.125 458.034 352.12 463.081 352.078 468.134C352.067 469.433 352.076 470.732 352.091 472.03L352.14 475.927C352.166 478.391 352.461 480.98 351.876 483.387C350.934 487.261 344.534 486.538 344.744 482.578C344.551 481.261 344.543 479.899 344.593 478.535C344.563 478.359 344.53 478.18 344.493 477.997C344.388 477.474 344.478 476.989 344.683 476.572C344.716 475.918 344.746 475.267 344.757 474.628C344.799 472.027 344.796 469.436 344.724 466.835C344.573 461.351 344.355 455.868 344.135 450.387C343.695 439.434 343.083 428.476 342.196 417.551C339.109 379.52 332.592 341.272 321.644 304.684C316.559 287.693 309.55 271.014 299.497 256.332C295.035 249.814 290 243.793 284.419 238.206C278.802 232.583 272.613 226.989 265.987 222.598ZM190.236 467.762L190.994 473.254C191.374 476 191.749 478.747 192.106 481.497C194.527 481.165 197.004 481.026 199.338 480.819C203.423 480.457 207.536 480.281 211.633 480.112C220.105 479.762 228.619 479.156 237.1 479.198C237.187 479.199 237.269 479.204 237.352 479.211L237.772 468.375L231.814 468.366C226.765 468.358 221.718 468.315 216.669 468.271C212.123 468.232 207.574 468.226 203.028 468.131L201.08 468.085C197.633 467.992 193.826 468.184 190.236 467.762ZM238.272 452.033C238.029 452.062 237.782 452.086 237.519 452.097C236.339 452.147 235.149 452.112 233.968 452.122C231.453 452.144 228.939 452.161 226.424 452.16C221.394 452.16 216.365 452.19 211.336 452.251C206.159 452.314 200.986 452.404 195.808 452.414C193.3 452.418 190.799 452.352 188.291 452.282C188.697 455.848 189.121 459.412 189.589 462.967C193.483 462.441 197.671 462.706 201.477 462.67L201.971 462.663C207.166 462.575 212.365 462.64 217.561 462.646C222.906 462.653 228.25 462.67 233.596 462.714L237.987 462.75L237.995 462.529C238.124 459.034 238.207 455.534 238.272 452.033ZM186.36 434.971C186.846 439.181 187.303 443.398 187.769 447.613C188.079 447.566 188.392 447.524 188.712 447.491C191.224 447.228 193.731 447.003 196.252 446.846C201.277 446.535 206.302 446.37 211.336 446.235C216.512 446.096 221.689 445.99 226.867 445.916C229.383 445.881 231.896 445.885 234.412 445.902C235.592 445.91 236.784 445.873 237.962 445.952C238.103 445.962 238.237 445.976 238.37 445.992L238.459 439.662C238.474 438.607 238.49 437.553 238.507 436.498C234.619 436.738 230.666 436.647 226.781 436.648L225.885 436.65C221.004 436.672 216.12 436.605 211.239 436.504C206.204 436.399 201.179 436.234 196.152 435.911C194.116 435.781 192.094 435.607 190.069 435.384L189.056 435.268C188.174 435.164 187.267 435.08 186.36 434.971ZM238.908 417.109C229.544 417.853 220.23 418.164 210.842 418.256L209.433 418.268C201.136 418.331 192.771 418.674 184.455 418.454C184.952 422.768 185.448 427.083 185.948 431.397C187.139 431.341 188.335 431.341 189.499 431.299C191.867 431.213 194.227 431.192 196.596 431.186C201.477 431.175 206.358 431.218 211.239 431.208C216.27 431.197 221.299 431.112 226.329 431.017C230.407 430.941 234.528 430.634 238.617 430.645L238.908 417.109ZM239.304 398.702C238.219 399.063 236.938 399.086 235.534 399.15L231.909 399.331C230.229 399.414 228.548 399.491 226.867 399.552C221.265 399.758 215.664 399.949 210.061 400.128C204.32 400.31 198.551 400.416 192.809 400.235C189.996 400.146 187.207 399.999 184.403 399.764C183.709 399.706 183.003 399.668 182.295 399.618C182.947 405.334 183.603 411.05 184.26 416.765C192.537 415.749 200.877 415.116 209.143 414.064L216.618 413.109C224.089 412.155 231.554 411.219 239.052 410.429L239.304 398.702ZM239.703 380.092C238.111 380.485 236.296 380.466 234.768 380.562L234.484 380.582C231.588 380.802 228.683 380.912 225.78 380.983C220.089 381.124 214.395 381.194 208.702 381.229L205.279 381.25C200.716 381.277 196.155 381.288 191.591 381.182C188.663 381.114 185.741 380.97 182.816 380.824C181.939 380.779 181.043 380.75 180.144 380.705C180.756 386.117 181.374 391.528 181.99 396.939C182.951 396.786 183.917 396.67 184.838 396.514C187.196 396.116 189.549 395.797 191.924 395.512C197.068 394.896 202.239 394.452 207.407 394.077C212.713 393.692 218.023 393.367 223.329 392.994L227.088 392.729C228.34 392.642 229.593 392.558 230.847 392.481C232.987 392.35 235.475 392.498 237.598 392.032C238.173 391.792 238.811 391.737 239.451 391.874L239.703 380.092ZM240.185 358.308C239.634 359.008 238.811 359.375 237.83 359.502C232.721 360.166 227.48 360.272 222.327 360.585L221.419 360.642C216.098 360.993 210.775 361.269 205.45 361.552C199.981 361.842 194.512 362.079 189.038 362.27C186.714 362.351 184.378 362.36 182.051 362.331L181.054 362.316C180.098 362.299 179.097 362.302 178.094 362.269C178.649 367.33 179.21 372.39 179.778 377.449C180.801 377.337 181.824 377.253 182.816 377.147C185.74 376.838 188.66 376.532 191.591 376.301C197.144 375.863 202.701 375.6 208.264 375.324C213.956 375.042 219.651 374.855 225.344 374.589C228.104 374.459 230.864 374.299 233.616 374.045C235.544 373.867 237.835 373.21 239.848 373.452C239.958 368.404 240.072 363.356 240.185 358.308ZM240.634 338.794C240.547 338.929 240.445 339.06 240.321 339.181C238.072 341.406 235.299 341.234 232.318 341.468L232.135 341.482C229.214 341.728 226.291 341.962 223.366 342.173C217.519 342.596 211.661 342.891 205.806 343.154C199.814 343.424 193.783 343.61 187.785 343.487C183.944 343.408 179.921 343.422 176.003 343.048C176.605 348.621 177.21 354.194 177.82 359.766C178.921 359.559 180.03 359.399 181.08 359.234C183.727 358.817 186.376 358.399 189.038 358.092C194.357 357.479 199.677 356.906 205.007 356.389C209.564 355.946 214.12 355.497 218.681 355.093L221.419 354.856C226.86 354.398 232.371 353.643 237.83 353.531C238.73 353.513 239.748 354.003 240.263 354.776C240.384 349.448 240.509 344.121 240.634 338.794ZM241.012 322.997C239.622 323.166 238.125 323.07 236.842 323.112C233.6 323.218 230.357 323.316 227.114 323.412L207.656 323.987C201.032 324.182 194.384 324.329 187.756 324.235C184.841 324.194 181.913 324.189 178.999 324.03L178.028 323.971C176.828 323.891 175.356 323.88 173.919 323.734L175.616 339.464C179.515 338.901 183.533 338.69 187.398 338.359L188.224 338.286C193.926 337.767 199.655 337.423 205.366 337.036C211.225 336.639 217.076 336.157 222.927 335.664C225.851 335.418 228.775 335.172 231.698 334.903L232.059 334.868C234.819 334.579 237.415 333.965 239.859 335.594C240.217 335.832 240.497 336.15 240.689 336.507C240.796 332.004 240.9 327.5 241.012 322.997ZM241.465 304.639C229.615 305.116 217.763 305.478 205.904 305.637C199.229 305.727 192.563 305.664 185.888 305.524C182.994 305.463 180.076 305.325 177.184 305.103L176.101 305.016C174.726 304.9 173.282 304.816 171.843 304.677C172.438 310.086 173.027 315.495 173.613 320.905C175.027 320.642 176.506 320.521 177.746 320.362L178.028 320.325C181.108 319.9 184.218 319.653 187.314 319.381C193.342 318.849 199.401 318.507 205.445 318.216C211.635 317.917 217.828 317.665 224.018 317.389L230.209 317.112C231.241 317.066 232.273 317.021 233.305 316.978C234.779 316.915 236.253 316.856 237.727 316.795C238.454 316.765 239.21 316.666 239.938 316.704L240.146 316.676C240.241 316.664 240.325 316.654 240.403 316.645C240.601 316.495 240.814 316.369 241.04 316.275L241.177 316.221L241.465 304.639ZM169.9 287.241C170.451 292.11 170.995 296.98 171.532 301.851C173.222 301.658 174.932 301.551 176.546 301.405C179.8 301.114 183.069 300.858 186.333 300.708L192.856 300.404C197.205 300.203 201.553 300.009 205.904 299.85C217.814 299.415 229.723 298.916 241.625 298.308C241.709 295.005 241.796 291.701 241.884 288.398C241.313 289.01 240.487 289.413 239.403 289.411C226.907 289.377 214.402 289.449 201.908 289.244C195.654 289.141 189.407 288.989 183.16 288.668C180.104 288.511 177.03 288.191 173.997 287.77C172.703 287.591 171.288 287.463 169.9 287.241ZM167.9 269.891C168.488 274.879 169.064 279.868 169.631 284.858C171.183 284.581 172.786 284.433 174.234 284.236C177.344 283.813 180.474 283.475 183.607 283.298C189.703 282.953 195.803 282.779 201.908 282.65C214.401 282.384 226.907 282.386 239.403 282.287C240.577 282.278 241.448 282.743 242.02 283.437C242.107 280.322 242.199 277.207 242.293 274.092C241.086 273.965 239.889 273.784 238.782 273.707C235.379 273.469 231.974 273.252 228.568 273.056C221.461 272.648 214.346 272.3 207.234 271.99C200.12 271.68 193.003 271.378 185.887 271.114L182.774 271C177.825 270.816 172.792 270.583 167.9 269.891ZM165.663 251.107C166.274 256.159 166.876 261.211 167.477 266.264L167.66 267.828C173.612 266.67 179.884 266.33 185.887 266.075C193.004 265.772 200.11 265.616 207.234 265.638C214.351 265.659 221.457 265.828 228.568 266.122C232.121 266.269 235.674 266.439 239.225 266.632C240.202 266.685 241.347 266.656 242.525 266.673C242.551 265.879 242.572 265.085 242.6 264.292C242.708 261.076 242.814 257.86 242.924 254.644C240.522 255.879 237.399 256.377 234.985 256.903L234.71 256.964C230.724 257.86 226.655 258.44 222.586 258.795C214.597 259.493 206.524 259.232 198.543 258.557L197.145 258.437C190.135 257.829 182.869 257.058 176.074 255.322C172.838 254.495 169.492 253.338 166.591 251.661C166.29 251.487 165.978 251.302 165.663 251.107ZM233.15 191.079C233.22 190.806 233.628 190.744 233.763 190.999C234.707 192.793 235.058 194.947 235.713 196.87C236.418 198.937 237.076 201.02 237.854 203.062C239.48 207.328 241.397 211.428 243.684 215.381C245.948 219.294 239.608 222.088 237.942 217.803C236.222 213.382 234.808 208.81 233.953 204.138C233.535 201.859 233.163 199.548 233.042 197.232C232.938 195.242 232.659 193.02 233.15 191.079Z" fill="black"/>
<path fill-rule="evenodd" clip-rule="evenodd" d="M270.234 63.5414C254.552 22.1635 226.285 -8.132 178.63 10.8964C177.263 9.96294 175.479 9.71259 173.77 10.8056C147.81 27.1539 129.117 53.3642 121.015 82.9194C116.085 83.8596 111.294 85.4994 107.015 88.1884C97.7153 94.0327 91.4585 103.332 85.5935 112.39C83.8297 115.113 85.4629 119.621 88.7774 120.239C90.2171 120.508 91.6439 120.668 93.0627 120.71C92.7173 121.968 92.2626 123.183 91.6836 124.297C89.5873 128.332 93.5477 132.615 97.2593 131.512C97.6712 131.731 98.1027 131.91 98.5498 132.045C98.6006 134.331 99.7715 137.39 102.089 137.852C105.837 138.658 110.817 135.781 109.933 131.577C111.065 131.777 112.193 131.802 113.293 131.663C113.416 133.853 113.378 136.137 113.679 138.156C114.664 147.673 124.145 154.066 133.186 151.171C133.741 154.136 134.392 158.303 137.304 159.911C140.709 169.49 146.587 180.422 156.216 184.787C155.359 186.989 155.824 189.669 158.406 191.143C176.031 201.221 197.185 204.631 217.112 200.884C225.075 200.409 232.834 198.604 240.281 194.759C245.712 191.955 250.705 188.394 255.579 184.723C260.455 181.051 265.669 177.476 269.561 172.708C273.788 167.53 275.756 161.437 277.033 154.953C282.885 125.519 280.864 96.6185 270.234 68.5802C257.075 33.8732 283.388 98.2503 270.234 63.5414Z" fill="#694D3D"/>
<path fill-rule="evenodd" clip-rule="evenodd" d="M106.969 86.496C121.607 77.8363 140.274 80.0777 149.068 93.4917C150.586 95.8074 151.634 98.3549 152.375 101.304L152.494 101.794L152.614 102.31C152.997 104.015 153.248 105.619 153.589 108.347L153.967 111.442L154.075 112.286C154.441 115.087 154.762 116.857 155.263 118.661L155.362 119.011L155.941 121.009L153.757 121.818C149.574 123.333 148.698 123.469 146.284 122.203C144.399 121.215 143.415 119.884 142.105 117.188L141.916 116.793L141.498 115.914L141.271 115.45C140.418 113.742 139.735 111.92 138.769 111.258C137.458 110.359 133.326 110.002 130.452 110.356L130.302 110.375L130.178 110.401L129.965 110.449C125.132 111.595 120.727 115.508 117.821 119.643C115.482 122.972 114.138 127.166 113.973 131.525L113.963 131.815L113.906 134.04L109.221 133.94L109.267 133.074L109.197 133.228C107.721 136.349 104.012 138.427 100.91 136.361L100.799 136.286L100.687 136.205C98.0673 134.271 97.7519 130.357 99.9017 127.979L100.001 127.872L100.098 127.774L100.078 127.765L100.056 127.757L100.042 127.756C99.3096 127.891 98.6663 128.267 97.796 129.069L97.5721 129.279L97.1226 129.767L96.6575 130.265L96.4576 130.471C96.3299 130.6 96.2127 130.714 96.1027 130.814C95.954 130.95 95.8164 131.064 95.6666 131.168C95.5282 131.264 95.3852 131.348 95.2122 131.424C94.7854 131.61 94.3291 131.698 93.7452 131.554C92.9443 131.357 92.4929 130.871 92.2197 130.299C92.1136 130.077 92.0529 129.872 92.0099 129.657C91.965 129.431 91.9427 129.201 91.9312 128.936C91.9236 128.762 91.9209 128.572 91.9224 128.365L91.9277 128.041L91.9388 127.689L91.9506 127.408L92.0037 126.365C92.1933 122.942 93.0904 119.58 94.6262 116.406L94.7819 116.09L94.8399 115.975L94.6793 116.191C93.632 117.575 92.6205 118.535 91.3583 119.168L91.1846 119.253L91.0147 119.33C89.2634 120.102 87.4994 119.802 86.4338 118.372C85.6966 117.382 85.4791 116.079 85.6301 114.709C85.9233 112.05 86.9717 109.616 89.0244 106.064L89.312 105.57L90.4388 103.653C94.7808 96.3244 100.362 90.404 106.969 86.496Z" fill="#E8E1E1"/>
<path fill-rule="evenodd" clip-rule="evenodd" d="M194.422 2.83324C202.447 2.26503 210.619 3.62184 218.262 6.0489C230.451 9.91859 241.645 16.7478 250.842 25.6383C260.32 34.8007 267.331 46.0973 271.593 58.5741C276.733 73.6211 277.503 89.6873 278.95 105.395C279.68 113.33 280.885 121.145 282.137 129.004L282.335 130.246C283.558 137.903 284.246 145.647 282.557 153.292C279.747 165.998 271.327 176.784 261.331 184.754C240.797 201.126 208.831 211.107 184.923 196.042C181.225 193.711 184.73 187.75 188.34 190.179C190.882 191.889 193.574 193.388 196.461 194.423C208.523 198.746 221.771 197.206 233.693 193.185C245.441 189.222 256.714 182.525 265.383 173.589C274.489 164.204 279.535 152.61 278.806 139.418C278.371 131.57 276.588 123.866 275.599 116.081C274.722 109.186 274.196 102.253 273.591 95.3304L273.369 92.8403C272.084 78.7355 270.24 64.2437 263.841 51.4405C258.459 40.6692 250.578 31.0866 241.101 23.6861C231.18 15.9382 219.33 10.5194 206.897 8.4983C192.275 6.12177 178.279 10.4434 166.083 18.4886C155.265 25.6236 145.966 35.1583 138.835 45.977C135.377 51.2228 132.431 56.8248 129.887 62.5699C127.49 67.9828 125.837 73.6559 123.909 79.2352C125.495 79.1878 127.108 79.249 128.746 79.4305C137.145 80.364 144.971 84.7299 149.953 91.6141C156.041 100.026 154.396 110.352 156.774 119.919C156.958 120.662 156.645 121.389 156.011 121.8C152.405 124.137 147.58 124.215 144.09 121.583C141.061 119.299 139.639 115.169 140.865 111.561C141.025 111.091 141.708 111.174 141.727 111.678C141.958 117.819 147.638 122.547 153.206 119.625C150.817 111.376 152.074 102.162 147.19 94.7108C138.544 81.5227 120.652 80.9778 108.085 88.4123C101.471 92.3243 96.2365 98.2067 92.3384 104.786L91.2154 106.696C89.7212 109.248 88.1389 112.135 87.8289 114.946C87.6501 116.568 88.247 118.092 90.1021 117.275C91.6029 116.614 92.765 115.072 93.6564 113.746C95.1768 111.486 98.6706 113.439 97.4148 115.846L97.3721 115.925C95.5444 119.172 94.4192 122.751 94.2125 126.48L94.16 127.512C94.1256 128.265 94.1008 129.335 94.2595 129.374C94.4499 129.421 95.7724 127.889 95.9926 127.677C97.0534 126.655 98.1459 125.82 99.6226 125.548C101.564 125.191 103.523 127.6 101.837 129.179L101.767 129.243C100.263 130.554 100.33 133.169 101.991 134.395C104.336 136.126 107.222 133.301 107.563 130.975L107.574 130.89C107.875 128.377 111.355 128.288 111.544 130.89C111.954 136.536 105.252 141.268 100.152 138.42C98.1357 137.294 96.8537 135.233 96.4521 133.023C95.8085 133.364 95.114 133.601 94.3799 133.666C91.9898 133.879 90.2907 132.193 89.9042 129.931C89.454 127.296 89.721 124.474 90.4133 121.737C89.1153 122.051 87.75 121.931 86.3775 121.137C82.2255 118.734 83.4178 113.389 84.9855 109.78C91.6783 94.3773 105.544 80.4011 122.723 79.2915C122.817 76.5739 123.184 74.0046 123.785 71.2834C129.661 44.6663 148.696 20.0193 173.476 8.49964C180.098 5.42123 187.121 3.35048 194.422 2.83324ZM129.436 109.159L129.671 109.105C132.349 108.527 139.394 107.847 138.545 112.366C138.505 112.578 138.197 112.552 138.142 112.366C137.31 109.525 131.66 111.797 130.011 112.481C127.736 113.423 125.493 114.813 123.636 116.429C119.57 119.968 116.845 124.956 116.431 130.372C116.02 135.745 117.574 141.549 121.439 145.436C123.333 147.341 125.751 148.634 128.467 148.729C130.908 148.814 133.604 146.909 135.856 148.025C136.3 148.245 136.652 148.848 136.611 149.346C136.536 150.287 136.116 151.019 135.491 151.588C139.261 158.478 142.346 165.771 147.155 172.037C149.569 175.181 152.303 178.092 155.4 180.57C156.872 181.748 158.472 182.782 160.122 183.691C162.056 184.757 163.729 185.424 165.109 187.23C166.286 188.77 165.108 191.748 163.169 192.014C158.6 192.638 154.161 188.934 150.807 186.159C147.456 183.386 144.56 179.966 142.167 176.337C137.572 169.369 134.428 161.149 133.171 152.832C131.711 153.296 130.068 153.438 128.832 153.441C125.544 153.448 122.404 152.262 119.819 150.257C110.358 142.917 109.306 127.849 115.983 118.346C119.178 113.799 124.033 110.439 129.436 109.159ZM129.495 126.636C131.689 126.443 133.881 126.79 135.943 127.54L136.793 127.849C138.589 128.508 140.5 129.282 141.797 130.632C143.778 132.696 141.806 136.271 138.983 135.48C135.863 134.606 133.326 131.97 130.207 130.864C127.418 129.876 124.26 130.016 121.785 131.718C121.458 131.943 121.028 131.499 121.242 131.173C123.135 128.282 126.124 126.932 129.495 126.636Z" fill="black"/>
<path fill-rule="evenodd" clip-rule="evenodd" d="M238.043 159.778C238.729 158.586 240.306 157.481 241.75 157.65C248.217 158.409 248.206 166.257 245.709 170.838C243.495 174.901 238.912 177.285 234.326 176.937C229.507 176.571 225.402 173.736 223.595 169.225C222.4 166.24 221.848 160.731 225.027 158.726C225.086 158.689 225.183 158.698 225.23 158.752C226.754 160.527 226.814 163.191 228.148 165.166C229.389 167.004 231.317 168.521 233.575 168.755C235.262 168.93 236.968 168.322 237.628 166.806C237.985 165.986 237.944 165.541 237.81 164.977L237.688 164.487C237.266 162.769 237.076 161.462 238.043 159.778ZM239.772 125.362C243.145 127.414 248.285 132.198 244.656 137.286C240.385 141.771 234.235 136.628 231.205 134.302C228.395 132.5 225.238 137.136 227.845 139.241C249.743 155.467 258.629 125.898 241.478 122.949C239.59 122.624 238.888 124.727 239.772 125.362ZM204.153 111.291C206.223 108.182 210.949 108.64 212.089 112.329C212.707 114.327 211.854 116.123 211.898 118.119C211.935 119.805 211.825 121.683 211.308 123.316C210.131 127.039 206.785 129.669 202.827 129.56C198.882 129.451 195.408 126.952 193.755 123.432C192.097 119.899 192.448 116.243 193.659 112.65C193.717 112.478 193.943 112.394 194.079 112.539C195.51 114.061 196.557 115.668 197.641 117.372L198.752 119.119C199.601 120.434 200.835 122.114 202.42 122.009L202.657 121.985C203.098 121.947 203.03 122.035 203.37 121.434C203.527 121.156 203.499 120.639 203.575 120.311L203.601 120.2L203.587 120.14C203.553 119.981 203.52 119.682 203.493 119.162L203.487 119.048C203.372 116.617 202.686 113.493 204.153 111.291ZM256.634 113.36C256.263 109.384 261.848 108.501 263.705 111.443C264.673 112.978 264.955 114.905 265.169 116.731L265.27 117.598C265.489 119.473 265.576 121.424 264.763 123.173C263.482 125.928 260.696 127.385 257.691 127.154C254.821 126.933 252.202 125.268 250.822 122.74C249.592 120.484 248.368 116.08 249.863 113.727C249.953 113.584 250.133 113.566 250.257 113.676C251.669 114.931 251.9 117.22 252.739 118.855C253.605 120.541 254.919 122.184 256.91 122.44C258.815 122.685 259.542 121.644 259.056 119.827C258.43 117.481 256.87 115.885 256.634 113.36ZM205.661 87.652L206.575 87.3018C209.704 86.1187 214.001 84.751 216.545 87.2979C218.115 88.8684 218.414 91.1819 217.293 93.0984C215.936 95.42 213.501 95.4772 211.15 95.8192C208.475 96.2081 205.756 96.9476 203.266 98.0017C200.461 99.1895 197.858 100.67 195.308 102.324C192.884 103.895 190.469 106.464 187.568 106.948C187.45 106.967 187.315 106.916 187.284 106.786C186.626 103.948 188.457 101.154 190.09 98.9392C192.067 96.2578 194.463 94.0569 197.14 92.0836C199.724 90.1787 202.677 88.8022 205.661 87.652ZM262.509 97.7449L262.788 97.696C264.686 97.3798 266.406 97.4526 267.836 98.9569C268.927 100.104 269.348 101.592 268.828 103.109C268.348 104.509 267.274 105.931 265.715 106.224C260.454 107.215 254.626 107.051 249.338 106.301C246.919 105.958 244.478 105.538 242.121 104.875L241.037 104.56C239.07 103.998 236.818 103.41 235.389 101.962C234.875 101.442 235.171 100.697 235.786 100.456C238.279 99.479 241.697 99.999 244.356 99.9225C247.448 99.834 250.546 99.602 253.624 99.2823C256.632 98.9694 259.543 98.2894 262.509 97.7449Z" fill="black"/>
<path fill-rule="evenodd" clip-rule="evenodd" d="M291.641 91.3247C291.273 91.2635 290.905 91.2058 290.537 91.1517C290.25 90.9885 289.913 90.8629 289.52 90.7873C288.625 90.5598 287.735 90.4065 286.847 90.3238C274.103 87.4532 244.619 91.529 243.402 102.414C239.343 103.77 235.832 102.556 231.128 102.676C227.547 87.6978 165.645 89.8119 162.668 98.8424C162.657 98.8392 162.645 98.8365 162.634 98.833C159.773 97.9469 155.556 98.1606 152.282 98.0202C145.291 97.8736 138.292 98.4972 131.452 99.973C118.643 102.01 101.163 104.395 110.071 120.403C110.072 120.406 110.074 120.409 110.076 120.412L110.077 120.41C111.613 121.985 114.218 120.717 114.315 118.585C111.32 111.001 118.085 110.091 123.289 107.911C136.24 103.255 149.425 102.609 162.819 104.05C163.827 105.237 165.356 106.272 166.972 106.814C175.927 108.302 171.208 114.951 176.869 115.918C175.829 139.094 203.943 151.744 220.233 136.509C226.737 130.145 228.288 120.717 229.796 112.219C230.593 112.04 231.1 111.604 231.396 111.026C233.314 109.11 234.518 107.34 238.31 106.814C242.102 106.288 245.021 107.344 245.416 107.667C245.516 107.868 245.622 108.069 245.747 108.27C245.92 108.57 246.156 108.809 246.424 108.998C242.679 132.076 260.581 146.672 278.653 134.702C286.506 127.309 288.165 115.99 288.493 105.888C289.557 105.245 290.231 103.999 289.863 102.433C289.355 100.273 290.546 98.4038 292.443 97.465C294.907 96.2459 294.471 91.7937 291.641 91.3247ZM213.987 102.274C211.743 101.78 210.785 105.241 213.036 105.736C214.629 106.087 215.98 106.891 216.892 108.254L216.988 108.402C218.213 110.352 221.309 108.552 220.076 106.589C218.689 104.381 216.533 102.834 213.987 102.274ZM279.687 100.127C278.896 99.5698 277.699 99.9837 277.24 100.772C276.735 101.639 277.066 102.605 277.807 103.172L277.882 103.228C278.562 103.707 279.223 104.566 279.306 105.446L279.314 105.556C279.403 107.86 282.979 107.871 282.89 105.556C282.803 103.292 281.493 101.4 279.687 100.127Z" fill="black"/>
</svg>
