<svg width="150" data-name="Слой 1" xmlns="http://www.w3.org/2000/svg" xmlns:xlink="http://www.w3.org/1999/xlink" viewBox="0 0 369.69 203.67"><defs><linearGradient id="a" x1="420.94" y1="192.17" x2="420.95" y2="331.61" gradientUnits="userSpaceOnUse"><stop offset="0" stop-color="#43ada6"/><stop offset=".64" stop-color="#a1d2bf"/><stop offset="1" stop-color="#d1e5cc"/></linearGradient><linearGradient id="b" x1="185.08" y1="-5.13" x2="185.08" y2="134.31" xlink:href="#a"/></defs><path d="M0 172.01v-24.43h24.9v24.44h-8.66V154.7H8.61v17.31H0zm53.19-25.25a17.75 17.75 0 017.53 1.68v7.38a13.12 13.12 0 00-6.21-1.68c-3.41 0-6.52 1.48-6.52 5.65 0 3.87 3.05 5.6 6.36 5.6a13.66 13.66 0 006.62-1.63v7.38a21.86 21.86 0 01-8.4 1.63c-6.82 0-13.49-3.82-13.49-12.47.01-9.6 7.14-13.54 14.11-13.54zm22.34 25.25v-24.43h8.66v11.56l8.71-11.56h7.59v24.44h-8.66v-11.56l-8.7 11.56h-7.59zm65.57-24.43l-8.76 12.27 9.21 12.17h-9.77l-4.48-6.32-4.48 6.31h-9.77l9.21-12.17-8.76-12.27h9.77l4 6.41 4-6.41h9.77zm24.17-.76c7.33 0 13.75 4.33 13.75 13s-6.42 13-13.75 13-13.74-4.33-13.74-13 6.37-13 13.74-13zm0 7.64c-3.56 0-4.84 2.6-4.84 5.34s1.27 5.34 4.84 5.34 4.84-2.6 4.84-5.34-1.27-5.35-4.84-5.35zm29.83 18.11a13.63 13.63 0 01-4.38-.81v-6.87a3.76 3.76 0 001.37.31c3.66 0 4.17-7.84 4.63-17.61h20.88v24.44h-8.7V154.2h-4.33c-.56 10.18-2.55 18.37-9.47 18.37zm50.39-25.75c7.33 0 13.75 4.33 13.75 13s-6.42 13-13.75 13-13.74-4.33-13.74-13 6.41-13 13.74-13zm0 7.64c-3.56 0-4.84 2.6-4.84 5.34s1.27 5.34 4.84 5.34 4.84-2.6 4.84-5.34-1.27-5.35-4.84-5.35zm27.89 17.55v-24.43h19v7.12h-10.34v17.31h-8.66zm32.52 0v-24.43h8.66v11.56l8.7-11.56h7.64v24.44h-8.7v-11.56l-8.71 11.56h-7.59zm38.34 0l6.06-7.84a8.46 8.46 0 01-4.58-7.69c0-4.78 3.46-8.91 10.08-8.91h13.9v24.44h-8.65v-6.61h-2.39l-4.76 6.61h-9.62zm13.66-12.72h3.16v-5.09h-3.16c-2.09 0-3.26.92-3.26 2.54s1.15 2.55 3.26 2.55z" fill="#595857"/><path d="M57.7 203.4v-13.46h11.27v13.46h-2.76v-10.87h-5.74v10.87H57.7zm25.76-13.7c4.59 0 6.88 3.35 6.88 7s-2.3 7-6.88 7-6.88-3.35-6.88-7 2.32-7 6.88-7zm0 2.67c-2.7 0-4.05 2-4.05 4.33s1.35 4.33 4.05 4.33 4-2 4-4.33-1.32-4.36-4-4.36zm24.37 2.74v3.21H98v-3.21h9.83zm18.13 8.29v-4.83a10.4 10.4 0 01-3.28.58c-2.87 0-4.74-1.52-4.74-4.64v-4.58h2.78v4.48c0 1.46 1.11 2.1 2.67 2.1a6.71 6.71 0 002.57-.54v-6h2.78v13.43h-2.78zm20.22-13.46v2.54h-6.35v2.87h5.79v2.52h-5.79v3h6.46v2.54h-9.24v-13.47h9.12zm19.02 0v13.46h-2.78v-10.87h-3.52c-.44 5.73-1 11-4.63 11a4 4 0 01-1.44-.25v-2.54a2.44 2.44 0 00.89.1c2.18-.16 2.3-6.21 2.63-10.95h8.88zm14.48-.24c4.59 0 6.88 3.35 6.88 7s-2.29 7-6.88 7-6.88-3.35-6.88-7 2.29-7 6.88-7zm0 2.67c-2.7 0-4.05 2-4.05 4.33s1.35 4.33 4.05 4.33 4-2 4-4.33-1.31-4.36-4-4.36zm20.15-2.43c2.76 0 4.48 1.1 4.48 3.4a2.89 2.89 0 01-2 2.94 3.28 3.28 0 012.48 3.35c0 3.06-2.83 3.77-5.09 3.77h-5.57v-13.46h5.66zm0 7.66h-2.93v3.46h2.78c1.24 0 2.35-.27 2.35-1.73s-1.07-1.74-2.13-1.74zm-.26-5.29h-2.67v3.08h2.79a1.55 1.55 0 001.81-1.54c.05-1.07-.69-1.55-1.91-1.55zm21.99-2.37v2.54h-6.35v2.87H221v2.52h-5.79v3h6.46v2.54h-9.24v-13.47h9.12zm15.18 13.46v-4.83a10.4 10.4 0 01-3.28.58c-2.87 0-4.74-1.52-4.74-4.64v-4.58h2.78v4.48c0 1.46 1.11 2.1 2.67 2.1a6.71 6.71 0 002.57-.54v-6h2.78v13.43h-2.78zm20.23-13.46v2.54h-6.35v2.87h5.79v2.52h-5.79v3h6.46v2.54h-9.24v-13.47h9.12zm13.93-.24a8.11 8.11 0 013.7.87v2.75a5.26 5.26 0 00-3.24-1.06 4.3 4.3 0 00-4.57 4.6c0 3 2.31 4.27 4.57 4.27a4.88 4.88 0 003.33-1.12v2.83a8.33 8.33 0 01-3.79.86c-3.46 0-7-2.15-7-6.85 0-4.95 3.52-7.15 7-7.15zm11.39 13.7v-13.46h2.78v5.35h2.09l3.28-5.35h3.09l-4.2 6.56 4.44 6.91h-3.07l-3.53-5.5h-2.09v5.5h-2.78zm26.93 0v-6.94c0-.62 0-1.29.06-1.85l-6 8.79h-2.61v-13.46h2.78v6.94c0 .62 0 1.29-.06 1.85l6-8.79H312v13.46h-2.78z" fill="#9c9b9a"/><path d="M453 197.3h-64a29.88 29.88 0 00-29.85 29.85v60.94A29.84 29.84 0 00388.91 318h54.81a19 19 0 0019-19v-62.65a19 19 0 00-19-19h-45.53a19 19 0 00-19 19v48.72a4.48 4.48 0 109 0v-48.72a10 10 0 0110-10h45.53a10 10 0 0110 10v62.71a10 10 0 01-10 10h-1v-67.49a4.48 4.48 0 10-9 0v3.95a4.4 4.4 0 000 .47v31.54a6.38 6.38 0 01-6.35 5.93H414.5a6.4 6.4 0 01-6.4-6.4v-35.49a4.48 4.48 0 00-9 0v35.49a15.37 15.37 0 0015.35 15.35h12.94a15.24 15.24 0 006.41-1.41v18.05l-39.35-.05h-5.54A20.89 20.89 0 01368 288.09v-60.95a20.92 20.92 0 0120.89-20.89h64a20.92 20.92 0 0120.9 20.89v61.06a4.48 4.48 0 109 0v-61.06A29.88 29.88 0 00453 197.3z" transform="translate(-236.1 -197.3)" fill="url(#a)"/><circle cx="185.08" cy="64.87" r="5.07" fill="url(#b)"/></svg>